<?xml version="1.0" encoding="UTF-8"?>
<!DOCTYPE svg PUBLIC "-//W3C//DTD SVG 1.1//EN" "http://www.w3.org/Graphics/SVG/1.1/DTD/svg11.dtd">
<svg xmlns="http://www.w3.org/2000/svg" version="1.1" width="482px" height="487px" style="shape-rendering:geometricPrecision; text-rendering:geometricPrecision; image-rendering:optimizeQuality; fill-rule:evenodd; clip-rule:evenodd" xmlns:xlink="http://www.w3.org/1999/xlink">
<g><path style="opacity:0.997" fill="#07223e" d="M 176.5,-0.5 C 177.5,-0.5 178.5,-0.5 179.5,-0.5C 182.733,142.503 186.066,285.503 189.5,428.5C 189.5,447.833 189.5,467.167 189.5,486.5C 187.833,486.5 186.167,486.5 184.5,486.5C 122.826,479.1 61.1591,471.434 -0.5,463.5C -0.5,321.5 -0.5,179.5 -0.5,37.5C 58.4191,25.3801 117.419,12.7134 176.5,-0.5 Z"/></g>
<g><path style="opacity:0.998" fill="#1b648e" d="M 199.5,-0.5 C 201.5,-0.5 203.5,-0.5 205.5,-0.5C 266.368,9.26937 327.368,19.1027 388.5,29C 393.387,31.1866 398.387,33.1866 403.5,35C 408.369,37.9293 413.035,41.0959 417.5,44.5C 425.869,52.9021 433.036,62.2355 439,72.5C 445.355,86.9035 450.022,101.904 453,117.5C 457.465,143.134 459.631,168.967 459.5,195C 458.584,211.485 458.25,227.985 458.5,244.5C 450.058,241.936 441.392,240.436 432.5,240C 411.829,239.763 391.496,238.763 371.5,237C 357.321,234.888 344.654,229.388 333.5,220.5C 332.16,219.312 331.493,217.812 331.5,216C 340.189,196.742 341.689,176.909 336,156.5C 334,152.5 332,148.5 330,144.5C 327.5,141.5 325,138.5 322.5,135.5C 321.738,140.593 320.572,145.593 319,150.5C 313.955,157.257 309.955,164.59 307,172.5C 306.779,182.89 306.612,193.223 306.5,203.5C 304.997,204.557 303.33,205.224 301.5,205.5C 291.312,200.343 281.312,200.51 271.5,206C 267.268,209.743 262.935,213.243 258.5,216.5C 253.064,218.698 247.398,220.198 241.5,221C 260.79,233.322 281.79,238.655 304.5,237C 310.531,234.382 316.865,232.882 323.5,232.5C 324.367,235.908 325.533,239.242 327,242.5C 330.275,248.07 333.775,253.403 337.5,258.5C 346.324,275.484 356.658,291.484 368.5,306.5C 380.185,323.689 393.185,339.856 407.5,355C 408.527,355.513 409.527,356.013 410.5,356.5C 410.511,358.017 411.177,359.184 412.5,360C 416.043,363.049 419.709,365.882 423.5,368.5C 424.911,370.914 426.911,372.581 429.5,373.5C 437.714,381.777 447.381,387.777 458.5,391.5C 455.208,414.28 444.208,432.113 425.5,445C 418.957,447.817 412.624,450.15 406.5,452C 335.604,464.009 264.604,475.509 193.5,486.5C 192.167,486.5 190.833,486.5 189.5,486.5C 189.5,467.167 189.5,447.833 189.5,428.5C 192.853,285.598 196.186,142.598 199.5,-0.5 Z"/></g>
<g><path style="opacity:0.004" fill="#000000" d="M 417.5,43.5 C 418.833,44.1667 418.833,44.1667 417.5,43.5 Z"/></g>
<g><path style="opacity:0.004" fill="#000000" d="M 258.5,216.5 C 259.833,217.167 259.833,217.167 258.5,216.5 Z"/></g>
<g><path style="opacity:0.004" fill="#000000" d="M 337.5,257.5 C 338.833,258.167 338.833,258.167 337.5,257.5 Z"/></g>
<g><path style="opacity:0.004" fill="#000000" d="M 368.5,305.5 C 369.833,306.167 369.833,306.167 368.5,305.5 Z"/></g>
<g><path style="opacity:0.004" fill="#000000" d="M 410.5,355.5 C 411.833,356.167 411.833,356.167 410.5,355.5 Z"/></g>
<g><path style="opacity:0.004" fill="#000000" d="M 423.5,367.5 C 424.833,368.167 424.833,368.167 423.5,367.5 Z"/></g>
<g><path style="opacity:0.004" fill="#000000" d="M 429.5,372.5 C 430.833,373.167 430.833,373.167 429.5,372.5 Z"/></g>
<g><path style="opacity:0.004" fill="#000000" d="M 458.5,390.5 C 459.833,391.167 459.833,391.167 458.5,390.5 Z"/></g>
</svg>
